<svg height="512" width="512" xmlns="http://www.w3.org/2000/svg"><path d="M512 256c0 141.385-114.615 256-256 256S0 397.385 0 256 114.615 0 256 0s256 114.615 256 256z" fill="#40c1fa"/><path d="M424.267 293c0 92.931-75.336 168.267-168.267 168.267S87.733 385.931 87.733 293 163.069 124.733 256 124.733 424.267 200.069 424.267 293z" fill="#93dcfc"/><path d="M451 337c0 19.33-15.67 35-35 35h-64.506c-6.313 6.186-14.958 10-24.494 10h-28.369c-4.368 9.194-12.625 16.181-22.645 18.835.009.252.014.506.014.76V480h17c14.89 0 27.609 9.299 32.665 22.406C303.516 508.656 280.149 512 256 512s-47.516-3.344-69.665-9.594C191.391 489.299 204.109 480 219 480h17v-78.404c0-.255.005-.508.014-.76-10.02-2.654-18.278-9.642-22.645-18.835H185c-9.536 0-18.182-3.814-24.494-10H96c-19.33 0-35-15.67-35-35s15.67-35 35-35h320C435.33 302 451 317.67 451 337z" fill="#376099"/><path d="M484 37.859V325.53c0 9.311-8.394 16.373-17.568 14.779l-42.502-7.385c-37.815-6.571-78.438-1.505-116.159 14.484-16.844 7.14-34.27 12.102-51.771 14.822-17.501-2.72-34.928-7.683-51.771-14.822-37.72-15.989-78.344-21.054-116.159-14.484l-42.502 7.385C36.394 341.902 28 334.84 28 325.529V37.859a15 15 0 0112.43-14.778l47.607-8.278c37.821-6.576 78.452-1.512 116.179 14.48l.126.053C221.15 36.46 238.538 41.417 256 44.141c17.462-2.724 34.85-7.681 51.657-14.805l.126-.053c37.727-15.992 78.359-21.056 116.179-14.48l47.607 8.278A14.999 14.999 0 01484 37.859z" fill="#168c80"/><path d="M120 12.003v318.124c-10.778.051-21.462.977-31.93 2.796l-42.502 7.385C36.394 341.902 28 334.84 28 325.529V37.859a15 15 0 0112.43-14.778l47.607-8.278c10.48-1.823 21.174-2.75 31.963-2.8z" fill="#147d73"/><path d="M256 302v210c-24.149 0-47.516-3.344-69.665-9.594C191.391 489.299 204.109 480 219 480h17v-78.404c0-.255.005-.508.014-.76-10.02-2.654-18.278-9.642-22.645-18.835H185c-9.536 0-18.182-3.814-24.494-10H96c-19.33 0-35-15.67-35-35s15.67-35 35-35h160z" fill="#2e5180"/><path d="M458 47.75v306.311l-53.22-10.05c-33.503-6.327-69.494-1.45-102.913 13.946-14.923 6.875-30.362 11.653-45.867 14.272V65.948c15.471-2.623 30.876-7.396 45.766-14.256l.112-.051c33.425-15.398 69.423-20.274 102.931-13.943z" fill="#ffd993"/><path d="M458 47.75v306.311l-53.22-10.05a156.116 156.116 0 00-24.552-2.631c-43.976-1.244-76.766-30.191-89.019-72.07-.326-1.113-.655-161.895-.655-161.895 14.531-48.698 63.315-79.013 113.31-69.892.315.058.63.116.945.176z" fill="#fffac1"/><path d="M256 65.948v306.281c-15.505-2.619-30.945-7.397-45.867-14.272-33.419-15.396-69.41-20.273-102.913-13.946L54 354.061V47.75l53.191-10.052c33.508-6.332 69.506-1.456 102.931 13.943l.112.051c14.89 6.86 30.295 11.633 45.766 14.256z" fill="#ffcd71"/><path d="M256 65.948v306.281c-15.505-2.619-30.945-7.397-45.867-14.272-28.462-13.112-58.789-18.594-87.856-16.024V35.616c29.064-2.568 59.387 2.915 87.845 16.025l.112.051c14.89 6.86 30.295 11.633 45.766 14.256z" fill="#ffd993"/><path d="M424.928 71.014l-25.504-4.819C391.719 64.738 383.729 64 375.675 64c-20.486 0-41.809 4.834-61.659 13.979l-.125.058a216.321 216.321 0 01-25.395 9.819 5 5 0 00-3.497 4.769v233.382a5 5 0 007.039 4.565c26.752-11.943 55.669-18.256 83.626-18.256 11.652 0 23.258 1.076 34.498 3.199l12.91 2.438A5 5 0 00429 313.04V75.927a5 5 0 00-4.072-4.913zM419 307.007l-6.982-1.318c-11.85-2.238-24.081-3.373-36.354-3.373-26.909 0-54.641 5.56-80.664 16.126V96.258a227.146 227.146 0 0023.072-9.138l.125-.058C336.747 78.517 356.623 74 375.675 74c7.433 0 14.798.68 21.892 2.021L419 80.07z" fill="#ffcd71"/><path d="M223.504 87.855a216.885 216.885 0 01-25.398-9.82l-.11-.051C178.137 68.836 156.812 64 136.328 64c-8.057 0-16.048.738-23.751 2.194l-25.504 4.819A5.001 5.001 0 0083 75.927v237.112c0 1.488.663 2.899 1.809 3.85s2.654 1.342 4.119 1.063l12.91-2.438c11.24-2.123 22.847-3.199 34.499-3.199 27.958.001 56.875 6.313 83.625 18.256a4.993 4.993 0 004.76-.371 5 5 0 002.279-4.194V92.624a5.003 5.003 0 00-3.497-4.769zM217 318.441c-26.023-10.565-53.754-16.125-80.664-16.126-12.272 0-24.504 1.135-36.354 3.373L93 307.007V80.07l21.433-4.05c7.093-1.34 14.46-2.02 21.897-2.02 19.049 0 38.926 4.519 57.477 13.063l.109.051A227.484 227.484 0 00217 96.258z" fill="#ffb655"/><path d="M227 403a5 5 0 015-5h48a5 5 0 010 10h-48a5 5 0 01-5-5zm53 68h-48a5 5 0 000 10h48a5 5 0 000-10z" fill="#1c314e"/><path d="M256 388a5 5 0 01-5-5V270.298a5 5 0 0110 0V383a5 5 0 01-5 5z" fill="#dd7d00"/><path d="M267.5 392.5V444h-23v-51.5c0-6.351 5.149-11.5 11.5-11.5s11.5 5.149 11.5 11.5z" fill="#ffb655"/><path d="M267.5 419.5V444h-23v-24.5c0-6.351 5.149-11.5 11.5-11.5s11.5 5.149 11.5 11.5z" fill="#ffcd71"/><path d="M256 286.149a5 5 0 01-5-5V43a5 5 0 0110 0v238.149a5 5 0 01-5 5zM256 362c-7.456 0-13.5 6.044-13.5 13.5S248.544 389 256 389s13.5-6.044 13.5-13.5S263.456 362 256 362z" fill="#ff9f22"/><path d="M238 191l-24.31 24.31v3.228c0 17.205-13.947 31.152-31.152 31.152h-3.227l-8.844 8.844c.555.365 1.094.753 1.616 1.164 9.434 7.435 9.434 19.49 0 26.926L155 300.087l-17.082-13.463c-9.434-7.436-9.434-19.491 0-26.926.521-.411 1.06-.799 1.616-1.164l-8.844-8.844h-3.227c-17.205 0-31.152-13.948-31.152-31.152v-3.228L72 191l24.31-24.31v-3.228c0-17.205 13.947-31.152 31.152-31.152h3.227l8.844-8.844a23.364 23.364 0 01-1.616-1.164c-9.434-7.435-9.434-19.49 0-26.926L155 81.913l17.082 13.463c9.434 7.436 9.434 19.491 0 26.926-.521.411-1.06.799-1.616 1.164l8.844 8.844h3.227c17.205 0 31.152 13.948 31.152 31.152v3.228z" fill="#ff7c48"/><path d="M204.277 191c0 27.215-22.062 49.277-49.277 49.277S105.723 218.215 105.723 191s22.062-49.277 49.277-49.277 49.277 22.062 49.277 49.277z" fill="#f76937"/><path d="M191.681 191c0 20.258-16.423 36.681-36.681 36.681S118.319 211.258 118.319 191c0-20.259 16.423-36.681 36.681-36.681s36.681 16.422 36.681 36.681z" fill="#ffad8c"/><path d="M442 191l-24.31 24.31v3.228c0 17.205-13.947 31.152-31.152 31.152h-3.227l-8.844 8.844c.555.365 1.094.753 1.616 1.164 9.434 7.435 9.434 19.49 0 26.926L359 300.087l-17.082-13.463c-9.434-7.436-9.434-19.491 0-26.926.521-.411 1.06-.799 1.616-1.164l-8.844-8.844h-3.227c-17.205 0-31.152-13.948-31.152-31.152v-3.228L276 191l24.31-24.31v-3.228c0-17.205 13.947-31.152 31.152-31.152h3.227l8.844-8.844a23.364 23.364 0 01-1.616-1.164c-9.434-7.435-9.434-19.49 0-26.926L359 81.913l17.082 13.463c9.434 7.436 9.434 19.491 0 26.926-.521.411-1.06.799-1.616 1.164l8.844 8.844h3.227c17.205 0 31.152 13.948 31.152 31.152v3.228z" fill="#ffb655"/><path d="M140 171a5 5 0 015-5h20a5 5 0 010 10h-20a5 5 0 01-5-5zm25 35h-20a5 5 0 000 10h20a5 5 0 000-10zm10-20h-40a5 5 0 000 10h40a5 5 0 000-10z" fill="#ea552d"/><path d="M408.277 191c0 27.215-22.062 49.277-49.277 49.277S309.723 218.215 309.723 191s22.062-49.277 49.277-49.277 49.277 22.062 49.277 49.277z" fill="#ff9100"/><path d="M395.681 191c0 20.258-16.423 36.681-36.681 36.681S322.319 211.258 322.319 191c0-20.259 16.423-36.681 36.681-36.681s36.681 16.422 36.681 36.681z" fill="#ffd993"/><path d="M344 171a5 5 0 015-5h20a5 5 0 010 10h-20a5 5 0 01-5-5zm25 35h-20a5 5 0 000 10h20a5 5 0 000-10zm10-20h-40a5 5 0 000 10h40a5 5 0 000-10z" fill="#ff9100"/></svg>